<mxfile host="app.diagrams.net" agent="Mozilla/5.0 (Windows NT 10.0; Win64; x64) AppleWebKit/537.36 (KHTML, like Gecko) Chrome/133.0.0.0 Safari/537.36" version="26.1.1">
  <diagram name="Flow Diagram" id="64uLETDPdjxIWdwbZ-ta">
    <mxGraphModel dx="1562" dy="818" grid="1" gridSize="10" guides="1" tooltips="1" connect="1" arrows="1" fold="1" page="1" pageScale="1" pageWidth="850" pageHeight="1100" math="0" shadow="0">
      <root>
        <mxCell id="0" />
        <mxCell id="1" parent="0" />
        <mxCell id="09UdUCP8JWL5SeqIjBmW-1" value="EdgeEnhancer" style="rounded=1;whiteSpace=wrap;html=1;fillColor=#f5f5f5;fontColor=#333333;strokeColor=#666666;" vertex="1" parent="1">
          <mxGeometry x="40" y="80" width="200" height="470" as="geometry" />
        </mxCell>
        <mxCell id="09UdUCP8JWL5SeqIjBmW-2" value="输入特征&lt;br&gt;[B, in_dim, H, W]" style="shape=parallelogram;perimeter=parallelogramPerimeter;whiteSpace=wrap;html=1;fixedSize=1;" vertex="1" parent="1">
          <mxGeometry x="60" y="120" width="160" height="50" as="geometry" />
        </mxCell>
        <mxCell id="09UdUCP8JWL5SeqIjBmW-3" value="平均池化&lt;br&gt;AvgPool2d(3,1,1)&lt;br&gt;[B, in_dim, H, W]" style="rounded=0;whiteSpace=wrap;html=1;fillColor=#dae8fc;strokeColor=#6c8ebf;" vertex="1" parent="1">
          <mxGeometry x="60" y="200" width="160" height="60" as="geometry" />
        </mxCell>
        <mxCell id="09UdUCP8JWL5SeqIjBmW-4" value="特征差值&lt;br&gt;x - edge&lt;br&gt;[B, in_dim, H, W]" style="rounded=0;whiteSpace=wrap;html=1;fillColor=#d5e8d4;strokeColor=#82b366;" vertex="1" parent="1">
          <mxGeometry x="60" y="290" width="160" height="60" as="geometry" />
        </mxCell>
        <mxCell id="09UdUCP8JWL5SeqIjBmW-5" value="Sigmoid卷积&lt;br&gt;out_conv&lt;br&gt;[B, in_dim, H, W]" style="rounded=0;whiteSpace=wrap;html=1;fillColor=#ffe6cc;strokeColor=#d79b00;" vertex="1" parent="1">
          <mxGeometry x="60" y="380" width="160" height="60" as="geometry" />
        </mxCell>
        <mxCell id="09UdUCP8JWL5SeqIjBmW-6" value="输出特征&lt;br&gt;x + edge&lt;br&gt;[B, in_dim, H, W]" style="shape=parallelogram;perimeter=parallelogramPerimeter;whiteSpace=wrap;html=1;fixedSize=1;" vertex="1" parent="1">
          <mxGeometry x="60" y="470" width="160" height="50" as="geometry" />
        </mxCell>
        <mxCell id="09UdUCP8JWL5SeqIjBmW-7" value="MutilScaleEdgeInformationEnhance" style="rounded=1;whiteSpace=wrap;html=1;fillColor=#f5f5f5;fontColor=#333333;strokeColor=#666666;" vertex="1" parent="1">
          <mxGeometry x="320" y="80" width="240" height="570" as="geometry" />
        </mxCell>
        <mxCell id="09UdUCP8JWL5SeqIjBmW-8" value="输入特征&lt;br&gt;[B, inc, H, W]" style="shape=parallelogram;perimeter=parallelogramPerimeter;whiteSpace=wrap;html=1;fixedSize=1;" vertex="1" parent="1">
          <mxGeometry x="360" y="120" width="160" height="50" as="geometry" />
        </mxCell>
        <mxCell id="09UdUCP8JWL5SeqIjBmW-9" value="局部卷积&lt;br&gt;local_conv&lt;br&gt;[B, inc, H, W]" style="rounded=0;whiteSpace=wrap;html=1;fillColor=#dae8fc;strokeColor=#6c8ebf;" vertex="1" parent="1">
          <mxGeometry x="360" y="200" width="160" height="60" as="geometry" />
        </mxCell>
        <mxCell id="09UdUCP8JWL5SeqIjBmW-10" value="多尺度特征分支&lt;br&gt;自适应池化+降维+分组卷积&lt;br&gt;[B, inc/len(bins), bin, bin]" style="rounded=0;whiteSpace=wrap;html=1;fillColor=#d5e8d4;strokeColor=#82b366;" vertex="1" parent="1">
          <mxGeometry x="360" y="290" width="160" height="80" as="geometry" />
        </mxCell>
        <mxCell id="09UdUCP8JWL5SeqIjBmW-11" value="上采样&lt;br&gt;双线性插值&lt;br&gt;[B, inc/len(bins), H, W]" style="rounded=0;whiteSpace=wrap;html=1;fillColor=#ffe6cc;strokeColor=#d79b00;" vertex="1" parent="1">
          <mxGeometry x="360" y="400" width="160" height="60" as="geometry" />
        </mxCell>
        <mxCell id="09UdUCP8JWL5SeqIjBmW-12" value="边缘增强&lt;br&gt;EdgeEnhancer&lt;br&gt;[B, inc/len(bins), H, W]" style="rounded=0;whiteSpace=wrap;html=1;fillColor=#f8cecc;strokeColor=#b85450;" vertex="1" parent="1">
          <mxGeometry x="360" y="490" width="160" height="60" as="geometry" />
        </mxCell>
        <mxCell id="09UdUCP8JWL5SeqIjBmW-13" value="最终输出&lt;br&gt;特征拼接+卷积&lt;br&gt;[B, inc, H, W]" style="shape=parallelogram;perimeter=parallelogramPerimeter;whiteSpace=wrap;html=1;fixedSize=1;" vertex="1" parent="1">
          <mxGeometry x="360" y="580" width="160" height="50" as="geometry" />
        </mxCell>
        <mxCell id="09UdUCP8JWL5SeqIjBmW-14" style="edgeStyle=orthogonalEdgeStyle;rounded=0;orthogonalLoop=1;jettySize=auto;html=1;" edge="1" parent="1" source="09UdUCP8JWL5SeqIjBmW-2" target="09UdUCP8JWL5SeqIjBmW-3">
          <mxGeometry relative="1" as="geometry" />
        </mxCell>
        <mxCell id="09UdUCP8JWL5SeqIjBmW-15" style="edgeStyle=orthogonalEdgeStyle;rounded=0;orthogonalLoop=1;jettySize=auto;html=1;" edge="1" parent="1" source="09UdUCP8JWL5SeqIjBmW-3" target="09UdUCP8JWL5SeqIjBmW-4">
          <mxGeometry relative="1" as="geometry" />
        </mxCell>
        <mxCell id="09UdUCP8JWL5SeqIjBmW-16" style="edgeStyle=orthogonalEdgeStyle;rounded=0;orthogonalLoop=1;jettySize=auto;html=1;" edge="1" parent="1" source="09UdUCP8JWL5SeqIjBmW-4" target="09UdUCP8JWL5SeqIjBmW-5">
          <mxGeometry relative="1" as="geometry" />
        </mxCell>
        <mxCell id="09UdUCP8JWL5SeqIjBmW-17" style="edgeStyle=orthogonalEdgeStyle;rounded=0;orthogonalLoop=1;jettySize=auto;html=1;" edge="1" parent="1" source="09UdUCP8JWL5SeqIjBmW-5" target="09UdUCP8JWL5SeqIjBmW-6">
          <mxGeometry relative="1" as="geometry" />
        </mxCell>
        <mxCell id="09UdUCP8JWL5SeqIjBmW-18" style="edgeStyle=orthogonalEdgeStyle;rounded=0;orthogonalLoop=1;jettySize=auto;html=1;" edge="1" parent="1" source="09UdUCP8JWL5SeqIjBmW-8" target="09UdUCP8JWL5SeqIjBmW-9">
          <mxGeometry relative="1" as="geometry" />
        </mxCell>
        <mxCell id="09UdUCP8JWL5SeqIjBmW-19" style="edgeStyle=orthogonalEdgeStyle;rounded=0;orthogonalLoop=1;jettySize=auto;html=1;" edge="1" parent="1" source="09UdUCP8JWL5SeqIjBmW-9" target="09UdUCP8JWL5SeqIjBmW-10">
          <mxGeometry relative="1" as="geometry" />
        </mxCell>
        <mxCell id="09UdUCP8JWL5SeqIjBmW-20" style="edgeStyle=orthogonalEdgeStyle;rounded=0;orthogonalLoop=1;jettySize=auto;html=1;" edge="1" parent="1" source="09UdUCP8JWL5SeqIjBmW-10" target="09UdUCP8JWL5SeqIjBmW-11">
          <mxGeometry relative="1" as="geometry" />
        </mxCell>
        <mxCell id="09UdUCP8JWL5SeqIjBmW-21" style="edgeStyle=orthogonalEdgeStyle;rounded=0;orthogonalLoop=1;jettySize=auto;html=1;" edge="1" parent="1" source="09UdUCP8JWL5SeqIjBmW-11" target="09UdUCP8JWL5SeqIjBmW-12">
          <mxGeometry relative="1" as="geometry" />
        </mxCell>
        <mxCell id="09UdUCP8JWL5SeqIjBmW-22" style="edgeStyle=orthogonalEdgeStyle;rounded=0;orthogonalLoop=1;jettySize=auto;html=1;" edge="1" parent="1" source="09UdUCP8JWL5SeqIjBmW-12" target="09UdUCP8JWL5SeqIjBmW-13">
          <mxGeometry relative="1" as="geometry" />
        </mxCell>
      </root>
    </mxGraphModel>
  </diagram>
</mxfile>
